<?xml version="1.0" encoding="UTF-8" standalone="no"?>
<!-- Created with Inkscape (http://www.inkscape.org/) -->

<svg
   xmlns:dc="http://purl.org/dc/elements/1.1/"
   xmlns:cc="http://creativecommons.org/ns#"
   xmlns:rdf="http://www.w3.org/1999/02/22-rdf-syntax-ns#"
   xmlns:svg="http://www.w3.org/2000/svg"
   xmlns="http://www.w3.org/2000/svg"
   xmlns:sodipodi="http://sodipodi.sourceforge.net/DTD/sodipodi-0.dtd"
   xmlns:inkscape="http://www.inkscape.org/namespaces/inkscape"
   width="85mm"
   height="54mm"
   id="svg3395"
   version="1.1"
   inkscape:version="0.47+devel r9033 custom"
   sodipodi:docname="ev.svg">
  <defs
     id="defs3" />
  <sodipodi:namedview
     id="base"
     pagecolor="#ffffff"
     bordercolor="#666666"
     borderopacity="1.0"
     inkscape:pageopacity="0.0"
     inkscape:pageshadow="2"
     inkscape:zoom="2.4666931"
     inkscape:cx="221.34531"
     inkscape:cy="140.77735"
     inkscape:document-units="mm"
     inkscape:current-layer="layer1"
     showgrid="false"
     inkscape:window-width="960"
     inkscape:window-height="634"
     inkscape:window-x="471"
     inkscape:window-y="241"
     inkscape:window-maximized="0" />
  <metadata
     id="metadata3399">
    <rdf:RDF>
      <cc:Work
         rdf:about="">
        <dc:format>image/svg+xml</dc:format>
        <dc:type
           rdf:resource="http://purl.org/dc/dcmitype/StillImage" />
        <dc:title />
      </cc:Work>
    </rdf:RDF>
  </metadata>
  <g
     inkscape:label="Layer 1"
     inkscape:groupmode="layer"
     id="layer1">
    <path
       inkscape:connector-curvature="0"
       id="path3274"
       style="font-size:144px;font-style:normal;font-variant:normal;font-weight:normal;font-stretch:normal;text-align:start;line-height:125%;writing-mode:lr-tb;text-anchor:start;fill:#000000;fill-opacity:1;stroke:none;font-family:Coolvetica;-inkscape-font-specification:Coolvetica"
       d="m 123.78215,57.899947 c -2e-5,2.197664 -0.5398,4.106155 -1.61932,5.725473 -2.31335,3.354322 -6.3231,5.031476 -12.02928,5.031476 -3.8941,0 -7.22914,-0.886773 -10.00512,-2.660321 C 97.044,63.9917 95.482509,61.292828 95.443954,57.899947 l 8.385796,0 c -1e-5,1.503671 0.65543,2.679606 1.96632,3.527816 1.15665,0.732561 2.5832,1.098837 4.27965,1.098829 1.50364,8e-6 2.79525,-0.289158 3.87481,-0.867496 1.11809,-0.616878 1.67714,-1.407264 1.67716,-2.371156 -2e-5,-1.272315 -1.63862,-2.274755 -4.91581,-3.007319 -4.85799,-1.11809 -7.92313,-1.985586 -9.19545,-2.602488 -3.277215,-1.580755 -4.915817,-4.009739 -4.915815,-7.286966 -2e-6,-1.927745 0.462662,-3.682011 1.387994,-5.262809 0.925324,-1.580738 2.486811,-2.833788 4.684481,-3.759149 2.19764,-0.963852 4.5688,-1.445795 7.11346,-1.445827 3.46997,3.2e-5 6.3809,0.828973 8.7328,2.486822 2.69884,1.850686 4.14467,4.472452 4.33748,7.865297 l -8.0388,0 c -0.42413,-2.737404 -2.23623,-4.10612 -5.43631,-4.106148 -1.31089,2.8e-5 -2.44828,0.289194 -3.41215,0.867496 -0.96389,0.578355 -1.44584,1.310907 -1.44583,2.197657 -1e-5,1.156685 1.65787,2.101292 4.97365,2.83382 4.8194,1.07957 7.9231,1.947066 9.31112,2.602488 3.31574,1.619341 4.97362,4.029052 4.97364,7.229133" />
    <path
       style="font-size:144px;font-style:normal;font-variant:normal;font-weight:normal;font-stretch:normal;text-align:start;line-height:125%;writing-mode:lr-tb;text-anchor:start;fill:#000000;fill-opacity:1;stroke:none;font-family:Coolvetica;-inkscape-font-specification:Coolvetica"
       d="m 132.41927,67.731567 -8.15447,0 0,-30.825023 8.15447,0 0,30.825023"
       id="path3291"
       inkscape:connector-curvature="0" />
    <path
       style="font-size:144px;font-style:normal;font-variant:normal;font-weight:normal;font-stretch:normal;text-align:start;line-height:125%;writing-mode:lr-tb;text-anchor:start;fill:#aa0000;fill-opacity:1;stroke:none;font-family:Coolvetica;-inkscape-font-specification:Coolvetica"
       d="m 132.41927,33.263061 -8.15447,0 0,-7.576131 8.15447,0 0,7.576131"
       id="path3276"
       inkscape:connector-curvature="0" />
    <path
       inkscape:connector-curvature="0"
       id="path3278"
       style="font-size:144px;font-style:normal;font-variant:normal;font-weight:normal;font-stretch:normal;text-align:start;line-height:125%;writing-mode:lr-tb;text-anchor:start;fill:#000000;fill-opacity:1;stroke:none;font-family:Coolvetica;-inkscape-font-specification:Coolvetica"
       d="m 156.31761,53.041969 c -2e-5,-6.6315 -2.29406,-9.947259 -6.88213,-9.947287 -4.62666,2.8e-5 -6.93998,3.161565 -6.93997,9.484623 -1e-5,2.96878 0.71326,5.320654 2.13982,7.055633 1.27232,1.542224 2.85308,2.313331 4.74231,2.313323 1.8892,8e-6 3.46997,-0.751822 4.74231,-2.255489 1.46508,-1.65787 2.19764,-3.874804 2.19766,-6.650803 m 7.74963,14.689598 -7.8653,0 0,-3.816982 -0.11566,0 c -1.92779,3.161545 -4.76161,4.742311 -8.50146,4.742311 -2.62178,0 -5.03149,-0.751829 -7.22913,-2.255489 -2.19767,-1.542211 -3.77844,-3.508531 -4.74232,-5.898973 -0.96388,-2.390421 -1.44582,-5.204959 -1.44582,-8.443627 0,-4.395293 1.00243,-8.038772 3.00732,-10.930449 2.27476,-3.354286 5.53269,-5.031444 9.77378,-5.031477 3.77842,3.3e-5 6.74718,1.619358 8.9063,4.857978 l 0.11566,0 0,-14.805265 8.09663,0 0,41.581973" />
    <path
       inkscape:connector-curvature="0"
       id="path3280"
       style="font-size:144px;font-style:normal;font-variant:normal;font-weight:normal;font-stretch:normal;text-align:start;line-height:125%;writing-mode:lr-tb;text-anchor:start;fill:#000000;fill-opacity:1;stroke:none;font-family:Coolvetica;-inkscape-font-specification:Coolvetica"
       d="m 193.74795,67.731567 -7.6918,0 0,-2.718154 c -2e-5,-1.079546 -0.0193,-1.619317 -0.0578,-1.619325 -2e-5,0.03855 -0.0193,0.05784 -0.0578,0.05783 -2.04346,3.469988 -5.16644,5.204975 -9.36896,5.204975 -2.89166,0 -5.30137,-0.944606 -7.22913,-2.83382 -2.19766,-2.081986 -3.29649,-4.954357 -3.29649,-8.617126 l 0,-20.299406 8.15446,0 0,19.084911 c -1e-5,3.816991 1.73498,5.725482 5.20498,5.725474 2.04342,8e-6 3.60491,-0.655434 4.68448,-1.966324 1.07953,-1.310871 1.6193,-2.98803 1.61932,-5.031477 l 0,-17.812584 8.0388,0 0,30.825023" />
    <path
       inkscape:connector-curvature="0"
       id="path3282"
       style="font-size:144px;font-style:normal;font-variant:normal;font-weight:normal;font-stretch:normal;text-align:start;line-height:125%;writing-mode:lr-tb;text-anchor:start;fill:#000000;fill-opacity:1;stroke:none;font-family:Coolvetica;-inkscape-font-specification:Coolvetica"
       d="m 224.68855,67.731567 -9.94728,0 -5.43631,-9.25329 -5.26281,9.25329 -9.71595,0 10.35211,-15.67276 -10.06295,-15.152263 9.83162,0 5.20498,9.021958 5.20497,-9.021958 9.48463,0 -10.17862,15.152263 10.52561,15.67276" />
    <g
       style="font-size:109.42694092000000694px;font-style:normal;font-variant:normal;font-weight:normal;font-stretch:normal;text-align:start;line-height:125%;writing-mode:lr-tb;text-anchor:start;fill:#aa0000;fill-opacity:1;stroke:none;font-family:Coolvetica;-inkscape-font-specification:Coolvetica"
       id="text3261"
       transform="matrix(0.4016185,0,0,0.4016185,81.37635,-184.37949)">
      <path
         d="m 398.31136,593.41848 c -0.3648,-3.93933 -1.7144,-7.03976 -4.0488,-9.30129 -2.26152,-2.26144 -4.88777,-3.39219 -7.87874,-3.39223 -2.91808,4e-5 -5.43489,1.05784 -7.55046,3.17338 -2.33446,2.26153 -3.79348,5.43491 -4.37708,9.52014 l 23.85508,0 m 15.75748,9.739 -40.15969,0 c 0.36474,4.8148 1.89671,8.53532 4.59593,11.16155 2.33442,2.18855 5.17952,3.28281 8.5353,3.2828 2.48031,1e-5 4.70533,-0.58359 6.67505,-1.75083 1.96964,-1.1672 3.24629,-2.73566 3.82994,-4.70536 l 15.75748,0 c -1.75089,5.90907 -4.88779,10.505 -9.41072,13.7878 -4.52302,3.20986 -9.88494,4.81478 -16.08576,4.81478 -19.47801,0 -29.21699,-10.6144 -29.21699,-31.84324 0,-8.97296 2.44386,-16.12218 7.3316,-21.44768 4.96068,-5.39833 11.89104,-8.09753 20.79112,-8.09759 18.23778,6e-5 27.35668,11.5993 27.35674,34.79777"
         id="path3518"
         inkscape:connector-curvature="0"
         style="fill:#aa0000" />
      <path
         d="m 434.68898,627.99739 -16.52347,0 0,-15.97633 16.52347,0 0,15.97633"
         id="path3520"
         inkscape:connector-curvature="0"
         style="fill:#aa0000" />
      <path
         d="m 493.7532,549.53828 -26.70017,78.67797 -15.53863,0 -26.48132,-78.67797 17.50831,0 17.0706,55.2606 17.07061,-55.2606 17.0706,0"
         id="path3522"
         inkscape:connector-curvature="0"
         style="fill:#aa0000" />
      <path
         d="m 498.64049,627.99739 -16.52346,0 0,-15.97633 16.52346,0 0,15.97633"
         id="path3524"
         inkscape:connector-curvature="0"
         style="fill:#aa0000" />
    </g>
  </g>
</svg>
