<?xml version="1.0" encoding="UTF-8" standalone="no"?>
<!-- Created with Inkscape (http://www.inkscape.org/) -->

<svg
   xmlns:dc="http://purl.org/dc/elements/1.1/"
   xmlns:cc="http://creativecommons.org/ns#"
   xmlns:rdf="http://www.w3.org/1999/02/22-rdf-syntax-ns#"
   xmlns:svg="http://www.w3.org/2000/svg"
   xmlns="http://www.w3.org/2000/svg"
   xmlns:sodipodi="http://sodipodi.sourceforge.net/DTD/sodipodi-0.dtd"
   xmlns:inkscape="http://www.inkscape.org/namespaces/inkscape"
   width="213"
   height="53"
   id="svg2936"
   version="1.1"
   inkscape:version="0.47+devel r"
   sodipodi:docname="Neues Dokument 2">
  <defs
     id="defs2938" />
  <sodipodi:namedview
     id="base"
     pagecolor="#ffffff"
     bordercolor="#666666"
     borderopacity="1.0"
     inkscape:pageopacity="0.0"
     inkscape:pageshadow="2"
     inkscape:zoom="0.7"
     inkscape:cx="350"
     inkscape:cy="142"
     inkscape:document-units="px"
     inkscape:current-layer="layer1"
     showgrid="false"
     inkscape:window-width="892"
     inkscape:window-height="601"
     inkscape:window-x="0"
     inkscape:window-y="0"
     inkscape:window-maximized="0" />
  <metadata
     id="metadata2941">
    <rdf:RDF>
      <cc:Work
         rdf:about="">
        <dc:format>image/svg+xml</dc:format>
        <dc:type
           rdf:resource="http://purl.org/dc/dcmitype/StillImage" />
        <dc:title></dc:title>
      </cc:Work>
    </rdf:RDF>
  </metadata>
  <g
     inkscape:label="Ebene 1"
     inkscape:groupmode="layer"
     id="layer1"
     transform="translate(0,-999.3622)">
    <path
       inkscape:connector-curvature="0"
       id="path3274"
       style="font-size:144px;font-style:normal;font-variant:normal;font-weight:normal;font-stretch:normal;text-align:start;line-height:125%;writing-mode:lr-tb;text-anchor:start;fill:#000000;fill-opacity:1;stroke:none;font-family:Coolvetica;-inkscape-font-specification:Coolvetica"
       d="m 39.526094,1037.3758 c -2e-5,2.1977 -0.5398,4.1062 -1.61932,5.7255 -2.31335,3.3543 -6.3231,5.0315 -12.02928,5.0315 -3.8941,0 -7.22914,-0.8868 -10.00512,-2.6604 -3.08443,-2.0048 -4.64593,-4.7037 -4.68448,-8.0966 l 8.3858,0 c -10e-6,1.5037 0.65543,2.6796 1.96632,3.5278 1.15665,0.7326 2.5832,1.0989 4.27965,1.0989 1.50364,0 2.79525,-0.2892 3.87481,-0.8675 1.11809,-0.6169 1.67714,-1.4073 1.67716,-2.3712 -2e-5,-1.2723 -1.63862,-2.2747 -4.91581,-3.0073 -4.85799,-1.1181 -7.92313,-1.9856 -9.19545,-2.6025 -3.27722,-1.5808 -4.91582,-4.0097 -4.91582,-7.287 0,-1.9277 0.46266,-3.682 1.38799,-5.2628 0.92533,-1.5807 2.48682,-2.8338 4.68449,-3.7591 2.19764,-0.9639 4.5688,-1.4458 7.11346,-1.4458 3.46997,0 6.3809,0.8289 8.7328,2.4868 2.69884,1.8507 4.14467,4.4724 4.33748,7.8653 l -8.0388,0 c -0.42413,-2.7374 -2.23623,-4.1061 -5.43631,-4.1062 -1.31089,10e-5 -2.44828,0.2892 -3.41215,0.8675 -0.96389,0.5784 -1.44584,1.3109 -1.44583,2.1977 -10e-6,1.1567 1.65787,2.1013 4.97365,2.8338 4.8194,1.0796 7.9231,1.9471 9.31112,2.6025 3.31574,1.6193 4.97362,4.029 4.97364,7.2291" />
    <path
       style="font-size:144px;font-style:normal;font-variant:normal;font-weight:normal;font-stretch:normal;text-align:start;line-height:125%;writing-mode:lr-tb;text-anchor:start;fill:#000000;fill-opacity:1;stroke:none;font-family:Coolvetica;-inkscape-font-specification:Coolvetica"
       d="m 48.163214,1047.2074 -8.15447,0 0,-30.825 8.15447,0 0,30.825"
       id="path3291"
       inkscape:connector-curvature="0" />
    <path
       style="font-size:144px;font-style:normal;font-variant:normal;font-weight:normal;font-stretch:normal;text-align:start;line-height:125%;writing-mode:lr-tb;text-anchor:start;fill:#aa0000;fill-opacity:1;stroke:none;font-family:Coolvetica;-inkscape-font-specification:Coolvetica"
       d="m 48.163214,1012.7389 -8.15447,0 0,-7.5761 8.15447,0 0,7.5761"
       id="path3276"
       inkscape:connector-curvature="0" />
    <path
       inkscape:connector-curvature="0"
       id="path3278"
       style="font-size:144px;font-style:normal;font-variant:normal;font-weight:normal;font-stretch:normal;text-align:start;line-height:125%;writing-mode:lr-tb;text-anchor:start;fill:#000000;fill-opacity:1;stroke:none;font-family:Coolvetica;-inkscape-font-specification:Coolvetica"
       d="m 72.061554,1032.5178 c -2e-5,-6.6315 -2.29406,-9.9472 -6.88213,-9.9472 -4.62666,0 -6.93998,3.1615 -6.93997,9.4846 -1e-5,2.9688 0.71326,5.3206 2.13982,7.0556 1.27232,1.5422 2.85308,2.3133 4.74231,2.3133 1.8892,0 3.46997,-0.7518 4.74231,-2.2555 1.46508,-1.6578 2.19764,-3.8748 2.19766,-6.6508 m 7.74963,14.6896 -7.8653,0 0,-3.8169 -0.11566,0 c -1.92779,3.1615 -4.76161,4.7423 -8.50146,4.7423 -2.62178,0 -5.03149,-0.7519 -7.22913,-2.2555 -2.19767,-1.5422 -3.77844,-3.5086 -4.74232,-5.899 -0.96388,-2.3904 -1.44582,-5.205 -1.44582,-8.4436 0,-4.3953 1.00243,-8.0388 3.00732,-10.9305 2.27476,-3.3543 5.53269,-5.0314 9.77378,-5.0314 3.77842,0 6.74718,1.6193 8.9063,4.8579 l 0.11566,0 0,-14.8052 8.09663,0 0,41.5819" />
    <path
       inkscape:connector-curvature="0"
       id="path3280"
       style="font-size:144px;font-style:normal;font-variant:normal;font-weight:normal;font-stretch:normal;text-align:start;line-height:125%;writing-mode:lr-tb;text-anchor:start;fill:#000000;fill-opacity:1;stroke:none;font-family:Coolvetica;-inkscape-font-specification:Coolvetica"
       d="m 109.49189,1047.2074 -7.6918,0 0,-2.7181 c -2e-5,-1.0796 -0.0193,-1.6193 -0.0578,-1.6193 -2e-5,0.038 -0.0193,0.058 -0.0578,0.058 -2.043456,3.47 -5.166436,5.205 -9.368956,5.205 -2.89166,0 -5.30137,-0.9446 -7.22913,-2.8339 -2.19766,-2.0819 -3.29649,-4.9543 -3.29649,-8.6171 l 0,-20.2994 8.15446,0 0,19.0849 c -1e-5,3.817 1.73498,5.7255 5.20498,5.7255 2.04342,0 3.60491,-0.6554 4.68448,-1.9663 1.079526,-1.3109 1.619296,-2.9881 1.619316,-5.0315 l 0,-17.8126 8.0388,0 0,30.825" />
    <path
       inkscape:connector-curvature="0"
       id="path3282"
       style="font-size:144px;font-style:normal;font-variant:normal;font-weight:normal;font-stretch:normal;text-align:start;line-height:125%;writing-mode:lr-tb;text-anchor:start;fill:#000000;fill-opacity:1;stroke:none;font-family:Coolvetica;-inkscape-font-specification:Coolvetica"
       d="m 140.43249,1047.2074 -9.94728,0 -5.43631,-9.2533 -5.26281,9.2533 -9.71595,0 10.35211,-15.6727 -10.06295,-15.1523 9.83162,0 5.20498,9.022 5.20497,-9.022 9.48463,0 -10.17862,15.1523 10.52561,15.6727" />
    <g
       style="font-size:109.42694092px;font-style:normal;font-variant:normal;font-weight:normal;font-stretch:normal;text-align:start;line-height:125%;writing-mode:lr-tb;text-anchor:start;fill:#aa0000;fill-opacity:1;stroke:none;font-family:Coolvetica;-inkscape-font-specification:Coolvetica"
       id="text3261"
       transform="matrix(0.4016185,0,0,0.4016185,-2.8797057,795.09639)">
      <path
         d="m 398.31136,593.41848 c -0.3648,-3.93933 -1.7144,-7.03976 -4.0488,-9.30129 -2.26152,-2.26144 -4.88777,-3.39219 -7.87874,-3.39223 -2.91808,4e-5 -5.43489,1.05784 -7.55046,3.17338 -2.33446,2.26153 -3.79348,5.43491 -4.37708,9.52014 l 23.85508,0 m 15.75748,9.739 -40.15969,0 c 0.36474,4.8148 1.89671,8.53532 4.59593,11.16155 2.33442,2.18855 5.17952,3.28281 8.5353,3.2828 2.48031,1e-5 4.70533,-0.58359 6.67505,-1.75083 1.96964,-1.1672 3.24629,-2.73566 3.82994,-4.70536 l 15.75748,0 c -1.75089,5.90907 -4.88779,10.505 -9.41072,13.7878 -4.52302,3.20986 -9.88494,4.81478 -16.08576,4.81478 -19.47801,0 -29.21699,-10.6144 -29.21699,-31.84324 0,-8.97296 2.44386,-16.12218 7.3316,-21.44768 4.96068,-5.39833 11.89104,-8.09753 20.79112,-8.09759 18.23778,6e-5 27.35668,11.5993 27.35674,34.79777"
         id="path3518"
         inkscape:connector-curvature="0"
         style="fill:#aa0000" />
      <path
         d="m 434.68898,627.99739 -16.52347,0 0,-15.97633 16.52347,0 0,15.97633"
         id="path3520"
         inkscape:connector-curvature="0"
         style="fill:#aa0000" />
      <path
         d="m 493.7532,549.53828 -26.70017,78.67797 -15.53863,0 -26.48132,-78.67797 17.50831,0 17.0706,55.2606 17.07061,-55.2606 17.0706,0"
         id="path3522"
         inkscape:connector-curvature="0"
         style="fill:#aa0000" />
      <path
         d="m 498.64049,627.99739 -16.52346,0 0,-15.97633 16.52346,0 0,15.97633"
         id="path3524"
         inkscape:connector-curvature="0"
         style="fill:#aa0000" />
    </g>
  </g>
</svg>
